<?xml version="1.0" standalone="no"?>
<!DOCTYPE svg PUBLIC "-//W3C//DTD SVG 20010904//EN"
 "http://www.w3.org/TR/2001/REC-SVG-20010904/DTD/svg10.dtd">
<svg version="1.0" xmlns="http://www.w3.org/2000/svg"
 width="216.000000pt" height="216.000000pt" viewBox="0 0 216.000000 216.000000"
 preserveAspectRatio="xMidYMid meet">
<metadata>
Created by potrace 1.14, written by Peter Selinger 2001-2017
</metadata>
<g transform="translate(0.000000,216.000000) scale(0.100000,-0.100000)"
fill="#000000" stroke="none">
<path d="M1024 2085 c-4 -10 -20 -15 -45 -15 -23 0 -41 -6 -46 -15 -5 -8 -21
-16 -35 -17 -15 -1 -26 -5 -26 -8 2 -25 -4 -50 -13 -50 -5 0 -8 4 -4 9 3 5 2
12 -3 15 -5 3 -9 0 -9 -7 -1 -24 -8 -42 -23 -55 -13 -12 -13 -13 4 -8 14 5 17
2 12 -10 -3 -8 -6 -19 -6 -22 0 -4 -5 0 -10 8 -7 10 -10 -16 -10 -83 0 -58 -4
-96 -9 -92 -5 3 -13 0 -17 -6 -4 -7 -3 -9 4 -5 6 3 13 2 17 -4 3 -5 -1 -10 -9
-10 -21 0 -20 -16 2 -30 14 -9 14 -11 1 -7 -13 4 -16 -1 -15 -23 0 -18 5 -26
13 -23 9 3 13 -4 13 -22 0 -17 4 -24 12 -19 8 5 9 2 5 -10 -4 -10 -3 -15 3
-11 6 3 11 -1 11 -9 3 -30 4 -34 13 -43 5 -5 6 -3 2 5 -4 6 -2 12 5 12 7 0 9
-10 6 -26 -3 -20 0 -28 14 -31 11 -3 19 -12 19 -19 0 -8 6 -14 14 -14 8 0 18
-5 22 -12 5 -8 2 -9 -10 -5 -10 4 -15 3 -11 -3 3 -6 15 -10 26 -10 15 0 19 -7
19 -36 0 -28 -3 -35 -15 -30 -8 3 -15 3 -15 0 0 -2 10 -9 23 -14 21 -8 20 -9
-8 -11 -16 -1 -40 -1 -52 -2 -13 0 -23 -6 -23 -13 0 -8 -5 -14 -11 -14 -6 0
-8 8 -5 18 5 15 5 15 -6 2 -11 -14 -25 -18 -75 -22 -6 -1 -9 -8 -5 -17 3 -9 2
-13 -2 -9 -4 3 -21 2 -38 -4 -22 -8 -26 -13 -16 -19 10 -7 10 -9 -3 -9 -19 0
-32 -26 -22 -43 4 -7 0 -6 -10 1 -17 15 -17 15 -18 -50 -1 -15 -4 -27 -8 -26
-20 2 -22 -4 -5 -17 16 -13 16 -14 2 -9 -16 5 -18 0 -18 -41 0 -29 -4 -44 -10
-40 -6 4 -10 3 -9 -2 1 -4 0 -10 -1 -13 -1 -3 -4 -21 -5 -40 -8 -78 -12 -100
-20 -108 -5 -4 -5 -2 -1 5 3 6 2 15 -4 18 -6 4 -10 3 -9 -2 5 -32 -3 -53 -21
-53 -14 0 -18 -5 -13 -17 4 -11 3 -14 -6 -9 -8 5 -14 0 -18 -14 -4 -13 -11
-19 -20 -15 -11 3 -13 1 -9 -10 3 -8 1 -15 -5 -15 -6 0 -7 -5 -3 -12 4 -6 3
-8 -3 -5 -10 6 -48 -31 -48 -48 0 -5 -5 -10 -12 -10 -6 0 -15 -4 -20 -9 -4 -5
-3 -6 4 -2 6 3 15 2 18 -4 4 -6 3 -10 -2 -9 -25 4 -53 -2 -48 -11 4 -6 11 -7
17 -4 7 4 8 2 4 -5 -4 -6 -12 -9 -17 -6 -5 4 -9 1 -9 -4 0 -6 -3 -10 -8 -9 -4
1 -18 -3 -32 -10 -24 -12 -24 -12 -5 3 20 16 20 16 0 14 -45 -5 -90 1 -76 10
16 10 3 20 -32 23 -14 1 -23 6 -21 10 3 5 10 6 15 3 5 -4 9 -2 9 3 0 5 -21 10
-46 11 -38 1 -45 -2 -40 -14 3 -8 1 -15 -4 -15 -6 0 -9 -5 -8 -12 3 -12 -3
-14 -41 -17 -16 -1 -19 -6 -14 -29 3 -15 6 -36 8 -47 1 -11 3 -24 4 -30 1 -5
6 -3 11 5 8 13 10 13 11 -2 3 -32 4 -36 13 -45 5 -5 6 -3 2 5 -4 6 -2 12 3 12
6 0 11 -4 11 -9 0 -5 10 -11 22 -15 19 -5 21 -8 8 -16 -12 -8 -12 -10 5 -8 11
0 33 0 48 0 25 -2 27 -4 13 -17 -8 -8 -19 -15 -25 -15 -6 0 -11 -5 -11 -11 0
-6 7 -8 16 -5 8 3 12 2 9 -4 -3 -6 -12 -10 -20 -10 -10 0 -12 -11 -9 -43 8
-71 10 -78 23 -86 7 -5 14 -16 15 -26 2 -11 18 -25 37 -32 19 -7 24 -11 11 -9
-12 2 -20 0 -16 -5 3 -5 27 -9 54 -9 30 0 50 -5 53 -12 3 -10 43 -13 154 -13
109 0 149 3 146 11 -2 6 4 11 14 11 105 0 143 4 143 17 0 10 11 13 35 12 19
-1 35 1 35 5 0 3 11 4 24 2 13 -3 27 1 31 8 6 8 4 10 -5 4 -8 -5 -11 -4 -6 3
4 6 66 11 171 12 137 1 168 -2 181 -15 9 -8 31 -15 50 -15 19 0 33 -4 29 -9
-3 -5 0 -13 6 -17 7 -4 9 -3 5 4 -11 18 16 26 29 9 14 -20 30 -23 19 -4 -6 9
-5 9 7 0 8 -6 36 -13 62 -14 31 -2 46 -7 43 -14 -2 -7 2 -12 9 -12 7 0 11 5 9
11 -2 6 7 12 21 12 24 2 24 1 8 -11 -16 -12 -15 -13 7 -11 14 0 28 5 32 10 9
13 40 17 32 5 -3 -5 -10 -7 -15 -4 -5 4 -9 2 -9 -3 0 -14 183 -7 188 7 2 6 22
11 44 11 33 0 39 3 34 16 -5 12 -2 15 10 10 11 -4 18 1 21 14 3 11 12 20 19
20 8 0 14 9 14 21 0 11 4 18 9 14 15 -8 22 10 22 57 0 62 -6 81 -24 87 -24 9
-4 33 27 34 24 0 25 1 9 13 -17 13 -17 14 0 8 9 -3 17 -2 17 4 0 5 8 9 18 8 9
0 16 5 14 12 -1 6 5 12 14 12 8 0 12 5 9 11 -4 6 2 13 13 16 18 4 20 12 18 61
-2 56 -2 57 -31 57 -22 0 -29 5 -27 16 2 12 -8 16 -43 17 -36 2 -43 -1 -39
-13 4 -11 0 -15 -16 -15 -16 0 -20 -4 -16 -15 7 -20 -4 -19 -20 2 -13 17 -14
17 -8 1 5 -14 1 -18 -20 -18 -15 0 -24 -5 -22 -13 1 -6 1 -9 -1 -4 -3 4 -10 4
-15 1 -7 -5 -8 -2 -3 6 6 10 3 12 -13 8 -20 -6 -27 2 -23 25 2 12 -17 8 -22
-5 -3 -8 -6 -6 -6 4 -1 10 -6 17 -13 15 -12 -2 -14 3 -17 38 0 8 -7 15 -15 15
-7 0 -16 10 -19 22 -4 12 -9 19 -12 16 -8 -7 -45 27 -45 41 0 5 -7 11 -15 15
-8 3 -14 11 -13 18 2 7 -5 12 -14 10 -14 -2 -18 4 -18 27 0 16 -5 33 -11 37
-8 4 -9 -1 -5 -17 5 -17 4 -20 -3 -9 -5 8 -11 33 -12 55 -2 22 -10 46 -19 53
-8 8 -10 11 -4 8 7 -3 14 1 17 9 4 8 1 12 -6 9 -7 -2 -13 4 -14 16 -1 13 2 18
10 14 8 -5 8 -3 0 7 -7 7 -13 24 -13 37 0 16 -4 21 -12 16 -10 -6 -10 -4 0 7
17 18 15 29 -5 29 -16 1 -16 2 2 17 16 13 17 15 3 10 -15 -5 -18 -1 -18 24 0
24 -4 30 -15 25 -8 -3 -14 -2 -14 2 4 25 -4 41 -21 47 -11 4 -18 11 -15 16 4
5 0 9 -8 9 -8 0 -17 6 -20 13 -3 7 -22 14 -43 15 -21 2 -42 8 -46 15 -4 7 -27
12 -50 13 -37 1 -43 4 -40 20 3 19 3 19 -11 0 -14 -19 -15 -19 -15 5 0 13 -1
29 -2 34 -5 22 1 33 21 38 14 4 18 10 13 18 -5 9 -2 10 9 6 12 -5 17 -1 17 13
0 11 7 20 15 20 9 0 15 9 15 23 0 12 5 29 11 37 9 13 10 12 5 -2 -3 -10 -1
-20 3 -22 5 -3 8 9 8 27 -1 26 2 31 18 29 20 -3 20 -3 0 12 -18 14 -18 15 -2
16 16 0 20 10 20 52 0 11 5 14 16 10 14 -5 14 -4 1 13 -9 11 -10 16 -2 11 8
-5 12 0 12 13 0 12 -7 21 -15 21 -15 0 -20 48 -15 139 1 29 -1 33 -17 27 -17
-6 -17 -5 0 8 20 16 22 32 4 39 -7 2 -13 17 -15 32 -1 14 -7 34 -13 43 -10 16
-10 16 -5 0 3 -10 1 -18 -4 -18 -6 0 -10 9 -10 21 0 16 -4 20 -17 15 -15 -5
-14 -3 2 10 14 11 15 15 5 14 -33 -5 -50 1 -50 15 0 10 -10 15 -29 15 -16 0
-32 6 -34 13 -4 10 -6 10 -6 0 -1 -7 -6 -13 -12 -13 -5 0 -7 5 -4 10 3 6 -2
10 -12 11 -10 0 -33 2 -50 4 -24 2 -33 -1 -33 -11 0 -8 -5 -14 -11 -14 -6 0
-9 7 -5 15 3 8 3 15 0 15 -2 0 -7 -7 -10 -15z m104 -10 c3 -3 -4 -4 -16 -2
-12 2 -24 6 -28 10 -4 3 4 4 16 2 12 -2 25 -7 28 -10z m-228 -55 c0 -5 -5 -10
-11 -10 -5 0 -7 5 -4 10 3 6 8 10 11 10 2 0 4 -4 4 -10z m410 -722 c0 -4 -4
-8 -9 -8 -6 0 -12 4 -15 8 -3 5 1 9 9 9 8 0 15 -4 15 -9z m90 -28 c0 -5 -5
-10 -11 -10 -5 0 -7 5 -4 10 3 6 8 10 11 10 2 0 4 -4 4 -10z m-770 -296 c0 -8
-5 -12 -10 -9 -6 4 -8 11 -5 16 9 14 15 11 15 -7z m156 -139 c-3 -10 1 -15 12
-16 13 0 11 -3 -5 -9 -29 -12 -30 -24 -2 -17 17 5 18 3 8 -10 -19 -22 -21 -73
-3 -73 8 0 14 -5 14 -11 0 -6 -6 -9 -13 -6 -9 3 -13 -6 -13 -32 -2 -81 -8
-110 -20 -100 -16 13 -153 9 -161 -4 -4 -6 -1 -7 7 -2 9 6 11 4 5 -4 -4 -7
-16 -11 -26 -8 -11 3 -19 1 -19 -4 0 -5 -8 -9 -17 -10 -15 0 -15 -2 2 -9 17
-7 15 -9 -12 -9 -17 -1 -34 -7 -37 -13 -3 -7 -3 1 -1 17 2 17 4 34 4 39 1 5 8
3 16 -4 13 -11 14 -10 9 4 -3 9 -2 16 4 16 6 0 12 -6 15 -12 2 -7 8 -1 12 15
5 17 14 27 26 27 13 0 17 5 12 18 -5 14 -3 14 11 -3 15 -17 17 -17 12 -2 -4
12 0 17 15 17 15 0 19 5 15 15 -5 13 5 20 27 16 4 0 7 10 7 23 0 14 4 28 10
31 6 3 7 -1 4 -9 -3 -9 -1 -16 5 -16 6 0 10 3 10 8 -5 27 3 52 16 52 10 0 15
10 15 30 0 21 5 30 16 30 8 0 12 5 9 10 -4 6 -11 7 -17 4 -7 -4 -8 -2 -4 5 4
6 12 9 17 6 5 -4 9 -1 9 4 0 6 3 11 6 11 3 0 4 -7 0 -15z m581 -40 c0 -8 -4
-12 -9 -9 -5 3 -6 10 -3 15 9 13 12 11 12 -6z m42 8 c-5 -28 3 -53 16 -53 8 0
14 -3 14 -7 -4 -24 2 -53 12 -53 5 0 8 4 4 9 -3 5 -1 13 5 16 6 4 10 3 9 -2
-4 -26 2 -53 12 -48 6 4 13 -2 16 -14 3 -12 12 -21 19 -21 8 0 14 -8 14 -17 1
-16 2 -16 16 2 15 20 16 20 12 0 -2 -11 3 -20 10 -21 24 -3 24 -4 12 -19 -7
-9 -10 -18 -6 -22 3 -3 6 -1 6 5 0 7 12 11 29 10 23 -2 27 -5 20 -15 -8 -9 -6
-12 8 -12 41 -1 51 -5 46 -18 -4 -11 -8 -11 -21 -1 -12 10 -14 10 -8 1 5 -10
-3 -13 -28 -13 -25 0 -36 4 -36 15 0 10 -10 15 -34 15 -42 0 -68 9 -60 21 3 5
0 9 -5 9 -6 0 -11 -6 -11 -12 0 -10 -2 -10 -8 -2 -4 7 -21 11 -39 11 -17 -1
-29 -5 -26 -10 2 -4 8 -5 13 -2 5 3 11 2 14 -3 2 -4 -8 -8 -23 -7 -30 0 -29
-5 -32 122 -1 51 -6 90 -10 87 -4 -2 -11 1 -15 8 -4 7 -4 10 1 6 12 -11 35 11
28 28 -3 8 1 14 11 14 9 0 15 -3 15 -7z m-602 -53 c-5 -29 -13 -33 -13 -5 0
14 4 25 8 25 4 0 7 -9 5 -20z m563 -50 c0 -5 -5 -10 -11 -10 -5 0 -7 5 -4 10
3 6 8 10 11 10 2 0 4 -4 4 -10z m-560 -84 c0 -3 -4 -8 -10 -11 -5 -3 -10 -1
-10 4 0 6 5 11 10 11 6 0 10 -2 10 -4z m1269 -13 c-9 -10 -15 -11 -17 -4 -2 6
-9 8 -14 5 -6 -4 -8 -3 -5 2 3 5 15 10 27 11 18 2 20 0 9 -14z m-101 -66 c-1
-18 -3 -26 -6 -19 -3 10 -7 10 -18 1 -8 -6 -14 -8 -14 -4 0 4 8 14 18 22 9 8
11 12 5 8 -9 -4 -12 2 -11 19 3 37 27 12 26 -27z m-1764 17 c3 -9 -1 -14 -12
-15 -10 0 -12 -3 -4 -6 6 -2 10 -9 6 -14 -11 -18 -20 -8 -22 26 -2 27 1 33 12
29 8 -3 17 -12 20 -20z m1720 -14 c-6 -6 -10 -3 -10 10 0 13 4 16 10 10 7 -7
7 -13 0 -20z m-1439 -9 c3 -5 1 -12 -5 -16 -5 -3 -10 1 -10 9 0 18 6 21 15 7z
m-10 -39 c-3 -3 -11 0 -18 7 -9 10 -8 11 6 5 10 -3 15 -9 12 -12z m1485 -116
c0 -3 -4 -8 -10 -11 -5 -3 -10 -1 -10 4 0 6 5 11 10 11 6 0 10 -2 10 -4z
m-665 -184 c-3 -3 -11 0 -18 7 -9 10 -8 11 6 5 10 -3 15 -9 12 -12z m-840 -52
c3 -5 1 -10 -4 -10 -6 0 -11 5 -11 10 0 6 2 10 4 10 3 0 8 -4 11 -10z m151 -2
c3 -4 -1 -5 -10 -4 -8 1 -18 5 -22 8 -3 4 1 5 10 4 8 -1 18 -5 22 -8z m1174 2
c0 -5 -2 -10 -4 -10 -3 0 -8 5 -11 10 -3 6 -1 10 4 10 6 0 11 -4 11 -10z"/>
<path d="M1510 560 c0 -5 9 -8 20 -7 21 1 18 10 -5 13 -8 1 -15 -2 -15 -6z"/>
<path d="M1335 1940 c-3 -5 -1 -10 4 -10 6 0 11 5 11 10 0 6 -2 10 -4 10 -3 0
-8 -4 -11 -10z"/>
<path d="M1366 1627 c3 -10 9 -15 12 -12 3 3 0 11 -7 18 -10 9 -11 8 -5 -6z"/>
<path d="M60 622 c0 -4 11 -8 25 -8 28 0 24 8 -5 13 -11 2 -20 -1 -20 -5z"/>
<path d="M155 300 c3 -5 8 -10 11 -10 2 0 4 5 4 10 0 6 -5 10 -11 10 -5 0 -7
-4 -4 -10z"/>
<path d="M825 159 c-3 -4 2 -6 10 -5 21 3 28 13 10 13 -9 0 -18 -4 -20 -8z"/>
</g>
</svg>
